<svg xmlns="http://www.w3.org/2000/svg" width="32" height="32" viewBox="0 0 32 32">
  <rect width="32" height="32" rx="4" fill="#1A1A1A"/>
  <path d="M8 8C8 7.44772 8.44772 7 9 7H23C23.5523 7 24 7.44772 24 8V10C24 10.5523 23.5523 11 23 11H9C8.44772 11 8 10.5523 8 10V8Z" fill="#E50914"/>
  <path d="M8 14C8 13.4477 8.44772 13 9 13H23C23.5523 13 24 13.4477 24 14V16C24 16.5523 23.5523 17 23 17H9C8.44772 17 8 16.5523 8 16V14Z" fill="#E50914"/>
  <path d="M8 20C8 19.4477 8.44772 19 9 19H16C16.5523 19 17 19.4477 17 20V24C17 24.5523 16.5523 25 16 25H9C8.44772 25 8 24.5523 8 24V20Z" fill="#E50914"/>
  <path d="M20 20C20 19.4477 20.4477 19 21 19H23C23.5523 19 24 19.4477 24 20V24C24 24.5523 23.5523 25 23 25H21C20.4477 25 20 24.5523 20 24V20Z" fill="#E50914"/>
</svg>