<svg width="24" height="24" viewBox="0 0 24 24" fill="none" xmlns="http://www.w3.org/2000/svg">
  <path fill-rule="evenodd" clip-rule="evenodd" d="M12 2C9.284 2 8.944 2.012 7.877 2.06C6.813 2.109 6.086 2.278 5.45 2.525C4.78 2.775 4.172 3.171 3.678 3.678C3.17 4.172 2.775 4.78 2.525 5.45C2.278 6.086 2.109 6.813 2.06 7.877C2.012 8.944 2 9.284 2 12C2 14.716 2.012 15.056 2.06 16.123C2.109 17.187 2.278 17.914 2.525 18.55C2.775 19.22 3.17 19.828 3.678 20.322C4.172 20.83 4.78 21.225 5.45 21.475C6.086 21.722 6.813 21.891 7.877 21.94C8.944 21.988 9.284 22 12 22C14.716 22 15.056 21.988 16.123 21.94C17.187 21.891 17.914 21.722 18.55 21.475C19.22 21.225 19.828 20.83 20.322 20.322C20.83 19.828 21.225 19.22 21.475 18.55C21.722 17.914 21.891 17.187 21.94 16.123C21.988 15.056 22 14.716 22 12C22 9.284 21.988 8.944 21.94 7.877C21.891 6.813 21.722 6.086 21.475 5.45C21.225 4.78 20.83 4.172 20.322 3.678C19.828 3.17 19.22 2.775 18.55 2.525C17.914 2.278 17.187 2.109 16.123 2.06C15.056 2.012 14.716 2 12 2ZM12 3.802C14.67 3.802 14.987 3.812 16.042 3.86C17.017 3.904 17.546 4.066 17.898 4.203C18.366 4.382 18.698 4.599 19.047 4.947C19.395 5.296 19.612 5.628 19.791 6.096C19.928 6.448 20.09 6.977 20.134 7.952C20.182 9.007 20.192 9.324 20.192 11.994C20.192 14.664 20.182 14.981 20.134 16.036C20.09 17.011 19.928 17.54 19.791 17.892C19.612 18.36 19.395 18.692 19.047 19.041C18.698 19.389 18.366 19.606 17.898 19.785C17.546 19.922 17.017 20.084 16.042 20.128C14.987 20.176 14.67 20.186 12 20.186C9.33 20.186 9.013 20.176 7.958 20.128C6.983 20.084 6.454 19.922 6.102 19.785C5.634 19.606 5.302 19.389 4.953 19.041C4.605 18.692 4.388 18.36 4.209 17.892C4.072 17.54 3.91 17.011 3.866 16.036C3.818 14.981 3.808 14.664 3.808 11.994C3.808 9.324 3.818 9.007 3.866 7.952C3.91 6.977 4.072 6.448 4.209 6.096C4.388 5.628 4.605 5.296 4.953 4.947C5.302 4.599 5.634 4.382 6.102 4.203C6.454 4.066 6.983 3.904 7.958 3.86C9.013 3.812 9.33 3.802 12 3.802Z" fill="currentColor"/>
  <path fill-rule="evenodd" clip-rule="evenodd" d="M12 15.336C10.159 15.336 8.664 13.841 8.664 12C8.664 10.159 10.159 8.664 12 8.664C13.841 8.664 15.336 10.159 15.336 12C15.336 13.841 13.841 15.336 12 15.336ZM12 6.862C9.164 6.862 6.862 9.164 6.862 12C6.862 14.836 9.164 17.138 12 17.138C14.836 17.138 17.138 14.836 17.138 12C17.138 9.164 14.836 6.862 12 6.862Z" fill="currentColor"/>
  <path d="M18.5 6.662C18.5 7.325 17.963 7.862 17.3 7.862C16.637 7.862 16.1 7.325 16.1 6.662C16.1 5.999 16.637 5.462 17.3 5.462C17.963 5.462 18.5 5.999 18.5 6.662Z" fill="currentColor"/>
</svg> 