<svg width="24" height="24" viewBox="0 0 24 24" fill="none" xmlns="http://www.w3.org/2000/svg">
  <path fill-rule="evenodd" clip-rule="evenodd" d="M4.98 3.5C4.98 4.881 3.87 6 2.5 6C1.13 6 0.02 4.881 0.02 3.5C0.02 2.12 1.13 1 2.5 1C3.87 1 4.98 2.12 4.98 3.5ZM5 8H0V23H5V8ZM12.982 8C12.982 8 13.018 8 13 8H9V23H14V15.601C14 13.931 14.329 12.3 16.35 12.3C18.35 12.3 18.37 14.24 18.37 15.7V23H23.369V14.549C23.369 10.099 22.319 8 18.189 8C16.199 8 14.889 9.04 14.329 10.03H14.279V8H12.982Z" fill="currentColor"/>
</svg> 